<?xml version="1.0" encoding="UTF-8" standalone="no"?>
<svg
   class="svg-standalone-icon"
   width="256"
   viewBox="208.28718 115 256 256.00002"
   preserveAspectRatio="none"
   version="1.1"
   id="svg847"
   sodipodi:docname="icon.svg"
   height="256"
   inkscape:version="1.2.1 (9c6d41e410, 2022-07-14)"
   inkscape:export-filename="icon_bg.png"
   inkscape:export-xdpi="96"
   inkscape:export-ydpi="96"
   xmlns:inkscape="http://www.inkscape.org/namespaces/inkscape"
   xmlns:sodipodi="http://sodipodi.sourceforge.net/DTD/sodipodi-0.dtd"
   xmlns="http://www.w3.org/2000/svg"
   xmlns:svg="http://www.w3.org/2000/svg">
  <defs
     id="defs851" />
  <sodipodi:namedview
     id="namedview849"
     pagecolor="#ffffff"
     bordercolor="#111111"
     borderopacity="1"
     inkscape:showpageshadow="0"
     inkscape:pageopacity="0"
     inkscape:pagecheckerboard="1"
     inkscape:deskcolor="#d1d1d1"
     showgrid="false"
     inkscape:zoom="2.2155916"
     inkscape:cx="21.664643"
     inkscape:cy="153.90923"
     inkscape:window-width="1920"
     inkscape:window-height="1009"
     inkscape:window-x="-8"
     inkscape:window-y="-8"
     inkscape:window-maximized="1"
     inkscape:current-layer="g845" />
  <g
     data-paper-data="{&quot;selectedEffects&quot;:{&quot;container&quot;:&quot;&quot;,&quot;transformation&quot;:&quot;&quot;,&quot;pattern&quot;:&quot;&quot;},&quot;initialText&quot;:&quot;SD&quot;,&quot;isIcon&quot;:&quot;true&quot;,&quot;iconType&quot;:&quot;initial&quot;,&quot;iconStyle&quot;:&quot;standalone&quot;,&quot;rawInitialId&quot;:46,&quot;disableIconEffects&quot;:&quot;true&quot;,&quot;monogramSpecial&quot;:&quot;half-moon&quot;,&quot;bounds&quot;:{&quot;x&quot;:208.28717903794342,&quot;y&quot;:115,&quot;width&quot;:133.42564192411317,&quot;height&quot;:132.28781734403907},&quot;fillRule&quot;:&quot;evenodd&quot;,&quot;suitableAsStandaloneIcon&quot;:true}"
     fill-rule="evenodd"
     id="g845">
    <path
       d="M 208.28717,243.00002 C 208.28717,172.30737 265.10599,115 335.19563,115 c 29.55803,0 56.75583,10.19205 78.32786,27.2814 -16.42775,-9.22549 -35.34729,-14.48171 -55.48421,-14.48171 -63.08079,0 -114.21752,51.57734 -114.21752,115.20033 0,63.6232 51.13671,115.2003 114.21752,115.2003 20.13692,0 39.05646,-5.2562 55.48421,-14.48194 -21.57203,17.08956 -48.76981,27.28164 -78.32786,27.28164 -70.08964,0 -126.90846,-57.30753 -126.90846,-128 z m 256,0 c 0,56.55396 -45.45555,102.4 -101.52737,102.4 -23.64637,0 -45.40475,-8.15357 -62.66198,-21.82535 13.14206,7.38065 28.27782,11.58537 44.38728,11.58537 50.46457,0 91.37364,-41.26149 91.37364,-92.16 0,-50.89887 -40.90907,-92.15979 -91.37364,-92.15979 -16.10946,0 -31.24522,4.20466 -44.38728,11.58521 17.25725,-13.67176 39.01561,-21.82527 62.66198,-21.82527 56.07184,0 101.52737,45.84573 101.52737,102.39987 z m -158.85641,21.06256 c -1.34223,0.34633 -3.04347,0.51949 -5.10368,0.51949 -4.1204,0 -7.60089,-0.42504 -10.44147,-1.27509 -2.84058,-0.85008 -5.22854,-1.81033 -7.16388,-2.88075 l -4.1204,11.71192 c 0.87403,0.50374 1.95095,1.03895 3.23077,1.60566 1.27983,0.5667 2.80936,1.10193 4.58864,1.60568 1.77926,0.50374 3.82385,0.92878 6.13378,1.27509 2.30993,0.34631 4.90078,0.51947 7.77258,0.51947 8.55296,0 14.95208,-1.68437 19.19735,-5.05312 4.24526,-3.36876 6.36789,-8.10706 6.36789,-14.21489 0,-3.14837 -0.40579,-5.82448 -1.21739,-8.02833 -0.81159,-2.20385 -2.04459,-4.12437 -3.699,-5.76152 -1.65442,-1.63717 -3.73021,-3.06965 -6.22744,-4.29753 -2.49722,-1.22786 -5.43144,-2.47146 -8.80267,-3.73082 -1.62319,-0.56669 -3.10591,-1.11768 -4.44818,-1.65288 -1.34223,-0.53523 -2.52842,-1.13342 -3.55852,-1.79458 -1.0301,-0.66115 -1.82609,-1.40101 -2.38796,-2.21959 -0.56187,-0.81859 -0.84282,-1.82605 -0.84282,-3.02244 0,-2.01497 0.76477,-3.51043 2.29432,-4.48643 1.52954,-0.97599 4.04238,-1.46399 7.53845,-1.46399 3.12153,0 5.79043,0.36206 8.0067,1.08619 2.21629,0.72411 4.22966,1.55842 6.04014,2.50295 l 4.21405,-11.61748 c -2.06019,-1.1334 -4.68226,-2.17236 -7.86623,-3.11688 -3.18395,-0.94451 -6.96099,-1.41676 -11.33112,-1.41676 -3.6834,0 -6.99219,0.45651 -9.92643,1.36954 -2.93422,0.91304 -5.43143,2.2196 -7.49163,3.91971 -2.06019,1.70011 -3.65218,3.76229 -4.77592,6.18654 -1.12375,2.42426 -1.68562,5.14758 -1.68562,8.17002 0,3.02243 0.53067,5.58836 1.59199,7.69776 1.06131,2.1094 2.43477,3.90398 4.12041,5.38372 1.6856,1.47972 3.58973,2.70759 5.71238,3.68357 2.12262,0.976 4.24527,1.84181 6.36789,2.59742 4.86957,1.63715 8.30326,3.1641 10.301,4.58086 1.99778,1.41676 2.99666,3.19559 2.99666,5.33648 0,1.00747 -0.15591,1.9205 -0.46823,2.73909 -0.31214,0.81858 -0.87403,1.52695 -1.68561,2.12514 -0.8116,0.59818 -1.88851,1.07045 -3.23078,1.41676 z m 85.9198,-6.18654 c 1.74803,-4.21882 2.62207,-9.16176 2.62207,-14.82881 0,-5.91893 -0.87404,-10.98781 -2.62207,-15.20663 -1.74804,-4.2188 -4.24527,-7.68202 -7.49166,-10.38959 -3.24637,-2.7076 -7.13266,-4.69108 -11.65886,-5.95041 -4.52619,-1.25936 -9.56745,-1.88903 -15.12374,-1.88903 -2.6221,0 -5.75921,0.1101 -9.41139,0.33059 -3.65216,0.22037 -7.16388,0.64543 -10.53511,1.27509 v 63.75441 c 3.37123,0.69265 6.80492,1.14916 10.30099,1.36955 3.49612,0.22037 6.55518,0.33058 9.17726,0.33058 5.7436,0 10.92533,-0.69264 15.54516,-2.07791 4.61986,-1.38527 8.53735,-3.4632 11.75252,-6.23375 3.21515,-2.77058 5.69677,-6.26525 7.44483,-10.48407 z m -37.22412,6.09209 c -0.90525,-0.0316 -1.70122,-0.0787 -2.38796,-0.14167 v -41.36954 c 0.93644,-0.12588 1.93535,-0.20464 2.99667,-0.23613 1.0613,-0.0316 2.0914,-0.0472 3.0903,-0.0472 7.30436,0 12.64215,1.76307 16.01338,5.28925 3.37125,3.52618 5.05687,8.72097 5.05687,15.58443 0,6.54861 -1.76367,11.68043 -5.29099,15.39551 -3.52731,3.71506 -8.94315,5.5726 -16.24749,5.5726 -1.24862,0 -2.32554,-0.0154 -3.23078,-0.0472 z"
       data-paper-data="{&quot;isPathIcon&quot;:true}"
       id="path843"
       style="fill:#ffc600;fill-opacity:1;stroke-width:1" />
  </g>
</svg>
